Genre:Comedy | Thriller 
Language:English
IMDb:http://www.imdb.com/title/tt1320239/
Source:BluRay.X264-AMIABLE


Format : MPEG-4
Format profile : Base Media
Codec ID : isom
File size : 1.81 GiB
Duration : 1h 31mn
Overall bit rate : 2 835 Kbps


Video
Format settings, CABAC : Yes
Format settings, ReFrames : 3 frames
Codec ID : avc1
Codec ID/Info : Advanced Video Coding
Duration : 1h 31mn
Bit rate mode : Variable
Bit rate : 2 395 Kbps
Maximum bit rate : 16.6 Mbps
Width : 1 280 pixels
Height : 536 pixels
Display aspect ratio : 2.35:1
Frame rate mode : Constant
Frame rate : 24.000 fps
Color space : YUV
Chroma subsampling : 4:2:0
Bit depth : 8 bits
Scan type : Progressive
Bits/(Pixel*Frame) : 0.145
Stream size : 1.49 GiB (83%)
Writing library : x264


Audio
ID : 2
Format : AAC
Format/Info : Advanced Audio Codec
Format version : Version 4
Format profile : LC
Format settings, SBR : No
Codec ID : 40
Duration : 1h 31mn
Bit rate mode : Variable
Bit rate : 492 Kbps
Maximum bit rate : 629 Kbps
Channel(s) : 6 channels
Channel positions : Front: L C R, Side: L R, LFE
Sampling rate : 48.0 KHz
Stream size : 322 MiB (17%)


Plot:
A black comedy about two 19th century grave robbers who find a lucrative business providing cadavers for an Edinburgh medical school.